<svg width="155" height="111" viewBox="0 0 155 111" fill="none" xmlns="http://www.w3.org/2000/svg">
<path d="M79.0605 17.4387L79.5468 17.1783L79.9035 17.6484L79.4209 18L79.0605 17.4387Z" fill="#C4C4C4"/>
<path fill-rule="evenodd" clip-rule="evenodd" d="M54.0506 26.8778C56.8125 29.6479 57.625 38.5207 57.8212 42.8851C57.1435 46.7431 55.85 50.2716 53.0534 52.9185C39.8444 65.8899 37.1576 57.0173 35.798 52.5274C34.7952 49.2162 34.5144 48.2886 31.2672 60.264C27.0559 84.6896 63.6314 86.4472 76.4492 66.1006C77.1165 72.3013 79.9689 78.1347 83.1596 81.1332C84.413 83.1252 91.4947 86.4551 98.7878 85.1389C103.278 84.3285 110.429 76.2908 111.427 71.2824C111.997 70.3376 110.596 70.432 108.432 70.5778C104.695 70.8295 98.6856 71.2343 96.6359 66.7032L96.6338 66.5645C96.5732 62.5779 96.5194 59.0366 99.2867 57.092C105.673 51.7226 110.008 54.5692 112.203 56.0108C114.224 57.338 114.432 57.4743 112.757 48.9117C105.109 35.0328 93.2984 36.8235 84.4577 46.3154C87.4922 32.2229 83.9451 20.6035 78.9652 15.9842C75.9857 11.9832 64.2052 4.46118 54.7163 5.17202C48.0113 5.17202 37.7532 14.8549 33.7618 20.531C32.1757 22.7866 35.7371 22.1166 40.4038 21.0244L40.4135 21.0318C44.0729 20.531 49.394 22.8682 54.0506 26.8778Z" fill="#FF6002"/>
<ellipse cx="103.444" cy="22.8681" rx="9.31318" ry="9.01505" fill="#FF6002"/>
<path d="M140.033 62.9351C140.033 64.226 139.065 65.2724 137.871 65.2724C136.677 65.2724 135.709 64.226 135.709 62.9351C135.709 61.6443 136.677 60.5979 137.871 60.5979C139.065 60.5979 140.033 61.6443 140.033 62.9351ZM136.141 62.9351C136.141 63.968 136.916 64.8054 137.871 64.8054C138.826 64.8054 139.601 63.968 139.601 62.9351C139.601 61.9022 138.826 61.0649 137.871 61.0649C136.916 61.0649 136.141 61.9022 136.141 62.9351Z" fill="#E76416"/>
<path d="M118.08 59.9401C121.709 59.9401 120.673 59.5945 123.568 62.935H135.709" stroke="#C71D66" stroke-width="2"/>
<path d="M118.08 68.9451H135.082L136.374 71.2823H140.033" stroke="#C71D66" stroke-width="2"/>
<path d="M118.412 76.2908C124.29 80.1331 116.862 77.0551 146.733 78.7323L151.008 80.6314" stroke="#C71D66" stroke-width="2"/>
<path d="M118.08 52.5929C128.165 52.5929 125.776 52.2727 126.307 55.5895H140.071L143.026 52.5929" stroke="#C71D66" stroke-width="2"/>
<path d="M139.367 62.9351C139.367 63.8571 138.696 64.6045 137.87 64.6045C137.043 64.6045 136.373 63.8571 136.373 62.9351C136.373 62.0131 137.043 61.2656 137.87 61.2656C138.696 61.2656 139.367 62.0131 139.367 62.9351ZM136.672 62.9351C136.672 63.6729 137.208 64.271 137.87 64.271C138.531 64.271 139.068 63.6729 139.068 62.9351C139.068 62.1973 138.531 61.5992 137.87 61.5992C137.208 61.5992 136.672 62.1973 136.672 62.9351Z" fill="#FF6002"/>
<path d="M155 81.7999C155 83.0907 154.032 84.1371 152.838 84.1371C151.644 84.1371 150.676 83.0907 150.676 81.7999C150.676 80.5091 151.644 79.4626 152.838 79.4626C154.032 79.4626 155 80.5091 155 81.7999ZM151.108 81.7999C151.108 82.8328 151.882 83.6701 152.838 83.6701C153.793 83.6701 154.568 82.8328 154.568 81.7999C154.568 80.767 153.793 79.9296 152.838 79.9296C151.882 79.9296 151.108 80.767 151.108 81.7999Z" fill="#E76416"/>
<path d="M154.335 81.7998C154.335 82.7218 153.665 83.4693 152.839 83.4693C152.012 83.4693 151.342 82.7218 151.342 81.7998C151.342 80.8778 152.012 80.1304 152.839 80.1304C153.665 80.1304 154.335 80.8778 154.335 81.7998ZM151.641 81.7998C151.641 82.5376 152.177 83.1357 152.839 83.1357C153.5 83.1357 154.036 82.5376 154.036 81.7998C154.036 81.062 153.5 80.4639 152.839 80.4639C152.177 80.4639 151.641 81.062 151.641 81.7998Z" fill="#FF6002"/>
<path d="M144.023 71.4493C144.023 72.7401 143.055 73.7865 141.861 73.7865C140.667 73.7865 139.699 72.7401 139.699 71.4493C139.699 70.1585 140.667 69.1121 141.861 69.1121C143.055 69.1121 144.023 70.1585 144.023 71.4493ZM140.131 71.4493C140.131 72.4822 140.906 73.3195 141.861 73.3195C142.817 73.3195 143.591 72.4822 143.591 71.4493C143.591 70.4164 142.817 69.5791 141.861 69.5791C140.906 69.5791 140.131 70.4164 140.131 71.4493Z" fill="#E76416"/>
<path d="M143.359 71.4492C143.359 72.3713 142.689 73.1187 141.862 73.1187C141.035 73.1187 140.365 72.3713 140.365 71.4492C140.365 70.5272 141.035 69.7798 141.862 69.7798C142.689 69.7798 143.359 70.5272 143.359 71.4492ZM140.664 71.4492C140.664 72.187 141.201 72.7851 141.862 72.7851C142.523 72.7851 143.06 72.187 143.06 71.4492C143.06 70.7114 142.523 70.1134 141.862 70.1134C141.201 70.1134 140.664 70.7114 140.664 71.4492Z" fill="#FF6002"/>
<path d="M146.351 50.7481C146.351 52.0389 145.383 53.0854 144.189 53.0854C142.995 53.0854 142.027 52.0389 142.027 50.7481C142.027 49.4573 142.995 48.4109 144.189 48.4109C145.383 48.4109 146.351 49.4573 146.351 50.7481ZM142.459 50.7481C142.459 51.781 143.234 52.6184 144.189 52.6184C145.145 52.6184 145.919 51.781 145.919 50.7481C145.919 49.7152 145.145 48.8779 144.189 48.8779C143.234 48.8779 142.459 49.7152 142.459 50.7481Z" fill="black"/>
<path d="M145.687 50.7481C145.687 51.6701 145.017 52.4175 144.19 52.4175C143.363 52.4175 142.693 51.6701 142.693 50.7481C142.693 49.8261 143.363 49.0786 144.19 49.0786C145.017 49.0786 145.687 49.8261 145.687 50.7481ZM142.992 50.7481C142.992 51.4859 143.529 52.084 144.19 52.084C144.852 52.084 145.388 51.4859 145.388 50.7481C145.388 50.0103 144.852 49.4122 144.19 49.4122C143.529 49.4122 142.992 50.0103 142.992 50.7481Z" fill="#C4C4C4"/>
<path d="M29.2723 31.8833C24.1722 33.4415 11.8101 37.9935 3.16211 43.7364L18.4623 47.9101M29.2723 31.8833L18.4623 47.9101M29.2723 31.8833L31.7669 47.9101M18.4623 47.9101L16.3003 36.7801" stroke="#4139A9" stroke-width="2"/>
<ellipse cx="3.16199" cy="43.9032" rx="2.16199" ry="2.00334" fill="#6763B8"/>
<ellipse cx="15.6349" cy="36.0568" rx="2.32829" ry="2.17029" fill="#6763B8"/>
<ellipse cx="19.1272" cy="49.2456" rx="3.49244" ry="3.33891" fill="#6763B8"/>
<ellipse cx="31.102" cy="31.2156" rx="2.4946" ry="2.67113" fill="#6763B8"/>
<path d="M98.7891 5.00502C100.452 3.66945 101.045 3.2485 102.78 2.66779C104.776 2.00001 105.441 2 106.772 2C108.93 2 109.552 2.12493 111.595 2.66779C114.112 3.3367 117.336 5.07385 119.411 7.00836C121.739 9.17865 122.682 10.2686 123.478 13.5633C124.274 16.8581 123.478 18.8615 123.478 18.8615" stroke="#FFA300" stroke-width="3" stroke-linecap="round"/>
<path d="M99.4531 9.80669C100.668 8.93395 101.101 8.65887 102.369 8.27939C103.827 7.84302 104.313 7.84302 105.284 7.84302C106.861 7.84302 107.315 7.92465 108.808 8.27939C110.646 8.71651 113.001 9.85168 114.517 11.1158C116.218 12.534 116.907 13.2462 117.488 15.3993C118.07 17.5523 117.488 18.8614 117.488 18.8614" stroke="#FFA300" stroke-width="3" stroke-linecap="round"/>
<path d="M59.3223 47.4091C59.3223 42.5676 63.1953 31.0323 54.8832 22.5342C45.0778 14.906 34.0459 23.1792 36.0905 20.5309C37.1926 19.1034 50.0184 11.5564 59.3223 19.2254C69.3181 27.4647 61.3669 44.7607 59.3223 47.4091Z" fill="#DE3806"/>
<path d="M79.2965 67.7449C79.7608 70.606 87.4803 79.5718 90.1412 80.4643C97.2505 82.8488 102.404 77.6164 101.45 79.3791C100.936 80.3292 94.0803 86.0292 87.8467 82.3968C81.1496 78.4942 78.3423 69.5077 79.2965 67.7449Z" fill="#DE3806"/>
<path d="M79.0605 17.4387L79.5468 17.1783L79.9035 17.6484L79.4209 18L79.0605 17.4387Z" fill="#C4C4C4"/>
<path fill-rule="evenodd" clip-rule="evenodd" d="M54.0506 26.8778C56.8125 29.6479 57.625 38.5207 57.8212 42.8851C57.1435 46.7431 55.85 50.2716 53.0534 52.9185C39.8444 65.8899 37.1576 57.0173 35.798 52.5274C34.7952 49.2162 34.5144 48.2886 31.2672 60.264C27.0559 84.6896 63.6314 86.4472 76.4492 66.1006C77.1165 72.3013 79.9689 78.1347 83.1596 81.1332C84.413 83.1252 91.4947 86.4551 98.7878 85.1389C103.278 84.3285 110.429 76.2908 111.427 71.2824C111.997 70.3376 110.596 70.432 108.432 70.5778C104.695 70.8295 98.6856 71.2343 96.6359 66.7032L96.6338 66.5645C96.5732 62.5779 96.5194 59.0366 99.2867 57.092C105.673 51.7226 110.008 54.5692 112.203 56.0108C114.224 57.338 114.432 57.4743 112.757 48.9117C105.109 35.0328 93.2984 36.8235 84.4577 46.3154C87.4922 32.2229 83.9451 20.6035 78.9652 15.9842C75.9857 11.9832 64.2052 4.46118 54.7163 5.17202C48.0113 5.17202 37.7532 14.8549 33.7618 20.531C32.1757 22.7866 35.7371 22.1166 40.4038 21.0244L40.4135 21.0318C44.0729 20.531 49.394 22.8682 54.0506 26.8778Z" fill="#FF6002"/>
<ellipse cx="103.444" cy="22.8681" rx="9.31318" ry="9.01505" fill="#FF6002"/>
<path d="M118.08 59.9401C121.709 59.9401 120.673 59.5945 123.568 62.935H135.709" stroke="#FF6002" stroke-width="2"/>
<path d="M118.08 68.9451H135.082L136.374 71.2823H140.033" stroke="#FF6002" stroke-width="2"/>
<path d="M118.412 76.2908C124.29 80.1331 116.862 77.0551 146.733 78.7323L151.008 80.6314" stroke="#FF6002" stroke-width="2"/>
<path d="M118.08 52.5929C128.165 52.5929 125.776 52.2727 126.307 55.5895H140.071L143.026 52.5929" stroke="#FF6002" stroke-width="2"/>
<path d="M146.351 50.7481C146.351 52.0389 145.383 53.0854 144.189 53.0854C142.995 53.0854 142.027 52.0389 142.027 50.7481C142.027 49.4573 142.995 48.4109 144.189 48.4109C145.383 48.4109 146.351 49.4573 146.351 50.7481ZM142.459 50.7481C142.459 51.781 143.234 52.6184 144.189 52.6184C145.145 52.6184 145.919 51.781 145.919 50.7481C145.919 49.7152 145.145 48.8779 144.189 48.8779C143.234 48.8779 142.459 49.7152 142.459 50.7481Z" fill="#E76416"/>
<path d="M145.687 50.7481C145.687 51.6701 145.017 52.4175 144.19 52.4175C143.363 52.4175 142.693 51.6701 142.693 50.7481C142.693 49.8261 143.363 49.0786 144.19 49.0786C145.017 49.0786 145.687 49.8261 145.687 50.7481ZM142.992 50.7481C142.992 51.4859 143.529 52.084 144.19 52.084C144.852 52.084 145.388 51.4859 145.388 50.7481C145.388 50.0103 144.852 49.4122 144.19 49.4122C143.529 49.4122 142.992 50.0103 142.992 50.7481Z" fill="#FF6002"/>
<path d="M29.2723 31.8833C24.1722 33.4415 11.8101 37.9935 3.16211 43.7364L18.4623 47.9101M29.2723 31.8833L18.4623 47.9101M29.2723 31.8833L31.7669 47.9101M18.4623 47.9101L16.3003 36.7801" stroke="#E76416" stroke-width="2"/>
<ellipse cx="3.16199" cy="43.9032" rx="2.16199" ry="2.00334" fill="#FF6002"/>
<ellipse cx="15.6349" cy="36.0568" rx="2.32829" ry="2.17029" fill="#FF6002"/>
<ellipse cx="19.1272" cy="49.2456" rx="3.49244" ry="3.33891" fill="#FF6002"/>
<ellipse cx="31.102" cy="31.2156" rx="2.4946" ry="2.67113" fill="#FF6002"/>
<path d="M98.7891 5.00502C100.452 3.66945 101.045 3.2485 102.78 2.66779C104.776 2.00001 105.441 2 106.772 2C108.93 2 109.552 2.12493 111.595 2.66779C114.112 3.3367 117.336 5.07385 119.411 7.00836C121.739 9.17865 122.682 10.2686 123.478 13.5633C124.274 16.8581 123.478 18.8615 123.478 18.8615" stroke="#FF6002" stroke-width="3" stroke-linecap="round"/>
<path d="M99.4531 9.80669C100.668 8.93395 101.101 8.65887 102.369 8.27939C103.827 7.84302 104.313 7.84302 105.284 7.84302C106.861 7.84302 107.315 7.92465 108.808 8.27939C110.646 8.71651 113.001 9.85168 114.517 11.1158C116.218 12.534 116.907 13.2462 117.488 15.3993C118.07 17.5523 117.488 18.8614 117.488 18.8614" stroke="#FF6002" stroke-width="3" stroke-linecap="round"/>
<path d="M59.3223 47.4091C59.3223 42.5676 63.1953 31.0323 54.8832 22.5342C45.0778 14.906 34.0459 23.1792 36.0905 20.5309C37.1926 19.1034 50.0184 11.5564 59.3223 19.2254C69.3181 27.4647 61.3669 44.7607 59.3223 47.4091Z" fill="#DE3806"/>
<path d="M79.2965 67.7449C79.7608 70.606 87.4803 79.5718 90.1412 80.4643C97.2505 82.8488 102.404 77.6164 101.45 79.3791C100.936 80.3292 94.0803 86.0292 87.8467 82.3968C81.1496 78.4942 78.3423 69.5077 79.2965 67.7449Z" fill="#DE3806"/>
<rect width="1.66945" height="4.32398" transform="matrix(-0.0164553 -0.999865 0.999862 -0.0165817 82.1797 105.263)" fill="#FF6002"/>
<path fill-rule="evenodd" clip-rule="evenodd" d="M100.115 102.187H98.4516V103.572L97.1211 103.594L97.1486 105.263L98.4516 105.241V106.527H100.115V105.214L101.472 105.191L101.444 103.522L100.115 103.544V102.187Z" fill="#FF6002"/>
<path fill-rule="evenodd" clip-rule="evenodd" d="M32.4188 100.539C33.4423 100.539 34.9908 100.953 35.9766 101.863C36.0736 101.954 36.2032 102.005 36.342 101.997C36.4775 101.991 36.6046 101.934 36.6932 101.834L37.6046 100.838C37.7844 100.639 37.7669 100.337 37.5637 100.16C35.9616 98.7704 33.7909 98.2771 32.4188 98.2771C29.9999 98.2771 27.3986 99.4488 27.3986 102.025C27.3986 104.421 29.9472 105.126 32.2123 105.754C33.4222 106.075 35.2475 106.566 35.2475 107.277C35.2475 108.435 33.5075 108.74 32.5869 108.74C31.6487 108.74 30.1654 108.401 29.065 107.451C28.8702 107.283 28.5725 107.288 28.3836 107.465L27.4278 108.366C27.3308 108.458 27.2773 108.583 27.2773 108.715C27.2773 108.846 27.3334 108.971 27.4312 109.06C28.8677 110.401 31.0559 110.999 32.5869 110.999C35.0828 110.999 37.6072 109.722 37.6072 107.277C37.6072 104.826 35.0385 104.124 32.7667 103.502L32.7165 103.489C31.3184 103.115 29.7348 102.69 29.7348 102.025C29.7348 100.853 31.4222 100.539 32.4188 100.539Z" fill="#FF6002"/>
<path fill-rule="evenodd" clip-rule="evenodd" d="M53.8811 107.09C53.7833 106.999 53.6479 106.945 53.5149 106.956C53.3794 106.965 53.2498 107.022 53.1612 107.122C52.2707 108.106 51.07 108.694 49.9462 108.694C47.8868 108.694 46.2086 107.124 46.2086 105.193V104.06C46.2086 102.144 47.8868 100.587 49.9462 100.587C51.07 100.587 52.2707 101.171 53.1612 102.155C53.2498 102.255 53.3769 102.315 53.5149 102.321C53.6479 102.329 53.7833 102.278 53.8811 102.187L54.887 101.263C55.0785 101.082 55.0935 100.789 54.9163 100.595C53.5801 99.1287 51.7247 98.2554 49.9462 98.2554C46.5715 98.2554 43.8223 100.86 43.8223 104.06V105.193C43.8223 108.347 46.4862 110.92 49.7881 111H50.07C51.7991 110.96 53.6027 110.103 54.9138 108.688C55.0935 108.494 55.0819 108.197 54.887 108.017L53.8811 107.09Z" fill="#FF6002"/>
<path fill-rule="evenodd" clip-rule="evenodd" d="M66.3225 98.4398C65.3433 98.4398 64.3466 98.7341 63.4703 99.2671V93.9697C63.4703 93.7021 63.2488 93.4878 62.972 93.4878H61.5823C61.3081 93.4878 61.084 93.7021 61.084 93.9697V110.518C61.084 110.783 61.3081 111 61.5823 111H62.972C63.2462 111 63.4703 110.787 63.4703 110.518L63.4938 103.367C63.4938 101.923 64.7622 100.748 66.3225 100.748C67.8952 100.748 69.1754 101.923 69.1754 103.367V110.518C69.1754 110.783 69.3995 111 69.6738 111H71.0367C71.3134 111 71.5375 110.783 71.5375 110.518V103.367C71.5375 100.697 69.1486 98.4398 66.3225 98.4398Z" fill="#FF6002"/>
<path fill-rule="evenodd" clip-rule="evenodd" d="M118.381 109.923L117.95 108.696C117.906 108.574 117.815 108.471 117.69 108.417C117.57 108.36 117.427 108.354 117.301 108.4C116.759 108.597 116.298 108.694 115.897 108.694C114.838 108.694 114.386 108.235 114.386 107.162V93.9688C114.386 93.7027 114.162 93.4861 113.888 93.4861H112.499C112.224 93.4861 112 93.7027 112 93.9688V107.162C112 109.553 113.367 110.947 115.754 111H115.981C116.55 110.982 117.218 110.785 117.985 110.559L118.053 110.539C118.183 110.503 118.29 110.414 118.351 110.3C118.413 110.182 118.425 110.046 118.381 109.923Z" fill="#FF6002"/>
<path fill-rule="evenodd" clip-rule="evenodd" d="M84.1704 108.669C85.2917 108.669 86.3444 108.247 87.1354 107.483L90.0995 104.615L87.1354 101.745C86.3444 100.981 85.2917 100.559 84.1704 100.559C81.8576 100.559 79.9788 102.379 79.9788 104.615C79.9788 106.849 81.8576 108.669 84.1704 108.669ZM84.1704 98.2683C85.9229 98.2683 87.5719 98.9274 88.8102 100.126L91.7752 102.995L94.7427 100.128C95.981 98.9274 97.6274 98.2683 99.3825 98.2683C99.6718 98.2683 99.9076 98.4964 99.9076 98.7761V100.051C99.9076 100.331 99.6718 100.559 99.3825 100.559C98.2612 100.559 97.2085 100.981 96.415 101.749L93.4534 104.615L96.415 107.483C97.2085 108.247 98.2612 108.669 99.3825 108.669C101.695 108.669 103.574 106.849 103.574 104.615C103.574 104.333 103.81 104.105 104.102 104.105H105.418C105.71 104.105 105.943 104.333 105.943 104.615C105.943 108.116 102.999 110.963 99.3825 110.963C97.6274 110.963 95.981 110.301 94.7427 109.102L91.7752 106.236L88.8102 109.102C87.5719 110.301 85.9255 110.963 84.1704 110.963C80.5516 110.963 77.6074 108.116 77.6074 104.615C77.6074 101.116 80.5516 98.2683 84.1704 98.2683Z" fill="#FF6002"/>
</svg>
