<svg width="308" height="219" viewBox="0 0 308 219" fill="none" xmlns="http://www.w3.org/2000/svg">
<path d="M156.119 32.7356L157.092 32.2172L157.805 33.153L156.84 33.853L156.119 32.7356Z" fill="#C4C4C4"/>
<path fill-rule="evenodd" clip-rule="evenodd" d="M106.103 51.5272C111.627 57.042 113.252 74.7062 113.644 83.3949C112.289 91.0756 109.702 98.1002 104.109 103.37C77.6908 129.194 72.3172 111.53 69.5979 102.591C67.5924 95.9991 67.0307 94.1524 60.5364 117.993C52.1138 166.62 125.265 170.119 150.9 129.613C152.235 141.957 157.94 153.571 164.321 159.54C166.828 163.506 180.991 170.135 195.578 167.515C204.558 165.902 218.861 149.9 220.856 139.929C221.997 138.048 219.193 138.236 214.866 138.526C207.392 139.027 195.373 139.833 191.274 130.813L191.27 130.537C191.148 122.6 191.041 115.55 196.575 111.678C209.349 100.989 218.018 106.656 222.408 109.526C226.45 112.168 226.865 112.44 223.517 95.3929C208.22 67.7624 184.599 71.3274 166.917 90.2242C172.986 62.1685 165.892 39.0362 155.932 29.8399C149.973 21.8746 126.412 6.89964 107.434 8.31481C94.0246 8.31481 73.5083 27.5917 65.5255 38.8919C62.3533 43.3823 69.4761 42.0485 78.8096 39.8742L78.8289 39.8889C86.1477 38.8919 96.79 43.5449 106.103 51.5272Z" fill="#FF6002"/>
<ellipse cx="204.89" cy="43.5448" rx="18.6264" ry="17.9474" fill="#FF6002"/>
<path d="M278.064 123.311C278.064 125.881 276.128 127.964 273.74 127.964C271.352 127.964 269.416 125.881 269.416 123.311C269.416 120.741 271.352 118.658 273.74 118.658C276.128 118.658 278.064 120.741 278.064 123.311ZM270.28 123.311C270.28 125.367 271.829 127.034 273.74 127.034C275.651 127.034 277.2 125.367 277.2 123.311C277.2 121.255 275.651 119.588 273.74 119.588C271.829 119.588 270.28 121.255 270.28 123.311Z" fill="black"/>
<path d="M234.16 117.349C241.419 117.349 239.345 116.661 245.137 123.311H269.417" stroke="#C71D66" stroke-width="2"/>
<path d="M234.16 135.276H268.165L270.748 139.929H278.065" stroke="#C71D66" stroke-width="2"/>
<path d="M234.824 149.9C246.58 157.549 231.724 151.421 291.467 154.761L300.016 158.541" stroke="#C71D66" stroke-width="2"/>
<path d="M234.16 102.722C254.329 102.722 249.552 102.084 250.614 108.687H278.141L284.052 102.722" stroke="#C71D66" stroke-width="2"/>
<path d="M276.735 123.311C276.735 125.147 275.395 126.635 273.742 126.635C272.088 126.635 270.748 125.147 270.748 123.311C270.748 121.476 272.088 119.988 273.742 119.988C275.395 119.988 276.735 121.476 276.735 123.311ZM271.346 123.311C271.346 124.78 272.419 125.971 273.742 125.971C275.065 125.971 276.137 124.78 276.137 123.311C276.137 121.842 275.065 120.652 273.742 120.652C272.419 120.652 271.346 121.842 271.346 123.311Z" fill="#C4C4C4"/>
<path d="M308 160.868C308 163.437 306.064 165.521 303.676 165.521C301.287 165.521 299.352 163.437 299.352 160.868C299.352 158.298 301.287 156.215 303.676 156.215C306.064 156.215 308 158.298 308 160.868ZM300.216 160.868C300.216 162.924 301.765 164.591 303.676 164.591C305.586 164.591 307.136 162.924 307.136 160.868C307.136 158.811 305.586 157.144 303.676 157.144C301.765 157.144 300.216 158.811 300.216 160.868Z" fill="black"/>
<path d="M306.669 160.868C306.669 162.703 305.328 164.191 303.675 164.191C302.022 164.191 300.682 162.703 300.682 160.868C300.682 159.032 302.022 157.544 303.675 157.544C305.328 157.544 306.669 159.032 306.669 160.868ZM301.28 160.868C301.28 162.337 302.352 163.527 303.675 163.527C304.998 163.527 306.071 162.337 306.071 160.868C306.071 159.399 304.998 158.208 303.675 158.208C302.352 158.208 301.28 159.399 301.28 160.868Z" fill="#C4C4C4"/>
<path d="M286.048 140.261C286.048 142.831 284.112 144.914 281.724 144.914C279.336 144.914 277.4 142.831 277.4 140.261C277.4 137.692 279.336 135.608 281.724 135.608C284.112 135.608 286.048 137.692 286.048 140.261ZM278.264 140.261C278.264 142.318 279.813 143.985 281.724 143.985C283.635 143.985 285.184 142.318 285.184 140.261C285.184 138.205 283.635 136.538 281.724 136.538C279.813 136.538 278.264 138.205 278.264 140.261Z" fill="black"/>
<path d="M284.718 140.261C284.718 142.097 283.377 143.585 281.724 143.585C280.071 143.585 278.73 142.097 278.73 140.261C278.73 138.426 280.071 136.938 281.724 136.938C283.377 136.938 284.718 138.426 284.718 140.261ZM279.329 140.261C279.329 141.73 280.401 142.921 281.724 142.921C283.047 142.921 284.119 141.73 284.119 140.261C284.119 138.793 283.047 137.602 281.724 137.602C280.401 137.602 279.329 138.793 279.329 140.261Z" fill="#C4C4C4"/>
<path d="M290.705 99.0488C290.705 101.619 288.769 103.702 286.381 103.702C283.993 103.702 282.057 101.619 282.057 99.0488C282.057 96.479 283.993 94.3958 286.381 94.3958C288.769 94.3958 290.705 96.479 290.705 99.0488ZM282.921 99.0488C282.921 101.105 284.47 102.772 286.381 102.772C288.292 102.772 289.841 101.105 289.841 99.0488C289.841 96.9924 288.292 95.3255 286.381 95.3255C284.47 95.3255 282.921 96.9924 282.921 99.0488Z" fill="black"/>
<path d="M289.374 99.0489C289.374 100.885 288.034 102.373 286.38 102.373C284.727 102.373 283.387 100.885 283.387 99.0489C283.387 97.2134 284.727 95.7253 286.38 95.7253C288.034 95.7253 289.374 97.2134 289.374 99.0489ZM283.985 99.0489C283.985 100.518 285.057 101.708 286.38 101.708C287.703 101.708 288.776 100.518 288.776 99.0489C288.776 97.5801 287.703 96.3894 286.38 96.3894C285.057 96.3894 283.985 97.5801 283.985 99.0489Z" fill="#C4C4C4"/>
<path d="M56.5445 61.4922C46.3444 64.5942 21.6201 73.6565 4.32422 85.0897L34.9246 93.3987M56.5445 61.4922L34.9246 93.3987M56.5445 61.4922L61.5337 93.3987M34.9246 93.3987L30.6007 71.2408" stroke="#4139A9" stroke-width="2"/>
<ellipse cx="4.32397" cy="85.4221" rx="4.32397" ry="3.98831" fill="#6763B8"/>
<ellipse cx="29.2699" cy="69.8014" rx="4.65659" ry="4.32067" fill="#6763B8"/>
<ellipse cx="36.2544" cy="96.0576" rx="6.98488" ry="6.64718" fill="#6763B8"/>
<ellipse cx="60.2021" cy="60.163" rx="4.9892" ry="5.31775" fill="#6763B8"/>
<path d="M195.576 7.98246C198.902 5.32359 200.088 4.48555 203.559 3.32944C207.55 2.00001 208.881 2 211.542 2C215.858 2 217.102 2.24871 221.187 3.32944C226.222 4.66114 232.67 8.11951 236.82 11.9708C241.477 16.2914 243.362 18.4613 244.954 25.0206C246.547 31.58 244.954 35.5683 244.954 35.5683" stroke="#FFA300" stroke-width="3" stroke-linecap="round"/>
<path d="M196.906 17.5419C199.336 15.8044 200.202 15.2568 202.738 14.5013C205.653 13.6326 206.625 13.6326 208.569 13.6326C211.722 13.6326 212.63 13.7951 215.615 14.5013C219.293 15.3715 224.003 17.6315 227.035 20.1481C230.436 22.9715 231.814 24.3894 232.977 28.6757C234.14 32.9621 232.977 35.5683 232.977 35.5683" stroke="#FFA300" stroke-width="3" stroke-linecap="round"/>
<path d="M116.645 92.4016C116.645 82.7632 124.391 59.7984 107.766 42.8801C88.1556 27.6936 66.0918 44.1642 70.181 38.8918C72.3851 36.0499 98.0368 21.0251 116.645 36.2928C136.636 52.6958 120.734 87.1292 116.645 92.4016Z" fill="#DE3806"/>
<path d="M156.591 132.887C157.52 138.583 172.959 156.432 178.28 158.209C192.499 162.956 202.807 152.539 200.898 156.049C199.869 157.94 186.159 169.288 173.692 162.056C160.297 154.287 154.683 136.396 156.591 132.887Z" fill="#DE3806"/>
<path d="M156.119 32.7356L157.092 32.2172L157.805 33.153L156.84 33.853L156.119 32.7356Z" fill="#C4C4C4"/>
<path fill-rule="evenodd" clip-rule="evenodd" d="M106.103 51.5272C111.627 57.042 113.252 74.7062 113.644 83.3949C112.289 91.0756 109.702 98.1002 104.109 103.37C77.6908 129.194 72.3172 111.53 69.5979 102.591C67.5924 95.9991 67.0307 94.1524 60.5364 117.993C52.1138 166.62 125.265 170.119 150.9 129.613C152.235 141.957 157.94 153.571 164.321 159.54C166.828 163.506 180.991 170.135 195.578 167.515C204.558 165.902 218.861 149.9 220.856 139.929C221.997 138.048 219.193 138.236 214.866 138.526C207.392 139.027 195.373 139.833 191.274 130.813L191.27 130.537C191.148 122.6 191.041 115.55 196.575 111.678C209.349 100.989 218.018 106.656 222.408 109.526C226.45 112.168 226.865 112.44 223.517 95.3929C208.22 67.7624 184.599 71.3274 166.917 90.2242C172.986 62.1685 165.892 39.0362 155.932 29.8399C149.973 21.8746 126.412 6.89964 107.434 8.31481C94.0246 8.31481 73.5083 27.5917 65.5255 38.8919C62.3533 43.3823 69.4761 42.0485 78.8096 39.8742L78.8289 39.8889C86.1477 38.8919 96.79 43.5449 106.103 51.5272Z" fill="#FF6002"/>
<ellipse cx="204.89" cy="43.5448" rx="18.6264" ry="17.9474" fill="#FF6002"/>
<path d="M234.16 117.349C241.419 117.349 239.345 116.661 245.137 123.311H269.417" stroke="#C71D66" stroke-width="2"/>
<path d="M234.16 135.276H268.165L270.748 139.929H278.065" stroke="#C71D66" stroke-width="2"/>
<path d="M234.824 149.9C246.58 157.549 231.724 151.421 291.467 154.761L300.016 158.541" stroke="#C71D66" stroke-width="2"/>
<path d="M234.16 102.722C254.329 102.722 249.552 102.084 250.614 108.687H278.141L284.052 102.722" stroke="#C71D66" stroke-width="2"/>
<path d="M290.705 99.0488C290.705 101.619 288.769 103.702 286.381 103.702C283.993 103.702 282.057 101.619 282.057 99.0488C282.057 96.479 283.993 94.3958 286.381 94.3958C288.769 94.3958 290.705 96.479 290.705 99.0488ZM282.921 99.0488C282.921 101.105 284.47 102.772 286.381 102.772C288.292 102.772 289.841 101.105 289.841 99.0488C289.841 96.9924 288.292 95.3255 286.381 95.3255C284.47 95.3255 282.921 96.9924 282.921 99.0488Z" fill="black"/>
<path d="M289.374 99.0489C289.374 100.885 288.034 102.373 286.38 102.373C284.727 102.373 283.387 100.885 283.387 99.0489C283.387 97.2134 284.727 95.7253 286.38 95.7253C288.034 95.7253 289.374 97.2134 289.374 99.0489ZM283.985 99.0489C283.985 100.518 285.057 101.708 286.38 101.708C287.703 101.708 288.776 100.518 288.776 99.0489C288.776 97.5801 287.703 96.3894 286.38 96.3894C285.057 96.3894 283.985 97.5801 283.985 99.0489Z" fill="#C4C4C4"/>
<path d="M56.5445 61.4922C46.3444 64.5942 21.6201 73.6565 4.32422 85.0897L34.9246 93.3987M56.5445 61.4922L34.9246 93.3987M56.5445 61.4922L61.5337 93.3987M34.9246 93.3987L30.6007 71.2408" stroke="#4139A9" stroke-width="2"/>
<ellipse cx="4.32397" cy="85.4221" rx="4.32397" ry="3.98831" fill="#6763B8"/>
<ellipse cx="29.2699" cy="69.8014" rx="4.65659" ry="4.32067" fill="#6763B8"/>
<ellipse cx="36.2544" cy="96.0576" rx="6.98488" ry="6.64718" fill="#6763B8"/>
<ellipse cx="60.2021" cy="60.163" rx="4.9892" ry="5.31775" fill="#6763B8"/>
<path d="M195.576 7.98246C198.902 5.32359 200.088 4.48555 203.559 3.32944C207.55 2.00001 208.881 2 211.542 2C215.858 2 217.102 2.24871 221.187 3.32944C226.222 4.66114 232.67 8.11951 236.82 11.9708C241.477 16.2914 243.362 18.4613 244.954 25.0206C246.547 31.58 244.954 35.5683 244.954 35.5683" stroke="#FFA300" stroke-width="3" stroke-linecap="round"/>
<path d="M196.906 17.5419C199.336 15.8044 200.202 15.2568 202.738 14.5013C205.653 13.6326 206.625 13.6326 208.569 13.6326C211.722 13.6326 212.63 13.7951 215.615 14.5013C219.293 15.3715 224.003 17.6315 227.035 20.1481C230.436 22.9715 231.814 24.3894 232.977 28.6757C234.14 32.9621 232.977 35.5683 232.977 35.5683" stroke="#FFA300" stroke-width="3" stroke-linecap="round"/>
<path d="M116.645 92.4016C116.645 82.7632 124.391 59.7984 107.766 42.8801C88.1556 27.6936 66.0918 44.1642 70.181 38.8918C72.3851 36.0499 98.0368 21.0251 116.645 36.2928C136.636 52.6958 120.734 87.1292 116.645 92.4016Z" fill="#DE3806"/>
<path d="M156.591 132.887C157.52 138.583 172.959 156.432 178.28 158.209C192.499 162.956 202.807 152.539 200.898 156.049C199.869 157.94 186.159 169.288 173.692 162.056C160.297 154.287 154.683 136.396 156.591 132.887Z" fill="#DE3806"/>
<rect width="3.32359" height="8.64796" transform="matrix(-0.016531 -0.999863 0.999864 -0.0165057 162.357 207.579)" fill="#FF6002"/>
<path fill-rule="evenodd" clip-rule="evenodd" d="M198.225 201.454H194.899V204.212L192.238 204.255L192.293 207.579L194.899 207.536V210.095H198.225V207.481L200.94 207.436L200.885 204.113L198.225 204.157V201.454Z" fill="#FF6002"/>
<path fill-rule="evenodd" clip-rule="evenodd" d="M62.8357 198.174C64.8826 198.174 67.9797 198.998 69.9513 200.809C70.1453 200.991 70.4045 201.092 70.6821 201.076C70.953 201.065 71.2072 200.951 71.3845 200.753L73.2073 198.769C73.5669 198.373 73.5318 197.771 73.1254 197.419C69.9213 194.653 65.5799 193.671 62.8357 193.671C57.9978 193.671 52.7952 196.004 52.7952 201.133C52.7952 205.902 57.8924 207.306 62.4226 208.555C64.8424 209.196 68.4931 210.173 68.4931 211.588C68.4931 213.894 65.013 214.5 63.1718 214.5C61.2955 214.5 58.3288 213.826 56.1281 211.934C55.7384 211.6 55.1431 211.611 54.7652 211.963L52.8537 213.757C52.6597 213.939 52.5527 214.188 52.5527 214.451C52.5527 214.711 52.6648 214.961 52.8605 215.138C55.7334 217.807 60.1098 218.998 63.1718 218.998C68.1637 218.998 73.2124 216.455 73.2124 211.588C73.2124 206.709 68.075 205.312 63.5314 204.074L63.4311 204.046C60.6349 203.302 57.4677 202.456 57.4677 201.133C57.4677 198.798 60.8424 198.174 62.8357 198.174Z" fill="#FF6002"/>
<path fill-rule="evenodd" clip-rule="evenodd" d="M105.758 211.216C105.563 211.034 105.292 210.927 105.026 210.949C104.755 210.967 104.496 211.08 104.319 211.279C102.538 213.238 100.136 214.409 97.8885 214.409C93.7696 214.409 90.4133 211.284 90.4133 207.44V205.184C90.4133 201.369 93.7696 198.269 97.8885 198.269C100.136 198.269 102.538 199.432 104.319 201.392C104.496 201.59 104.75 201.709 105.026 201.722C105.292 201.738 105.563 201.636 105.758 201.454L107.77 199.614C108.153 199.255 108.183 198.671 107.829 198.285C105.156 195.366 101.445 193.627 97.8885 193.627C91.1391 193.627 85.6406 198.813 85.6406 205.184V207.44C85.6406 213.718 90.9685 218.84 97.5724 219H98.136C101.594 218.921 105.201 217.215 107.824 214.397C108.183 214.011 108.16 213.42 107.77 213.061L105.758 211.216Z" fill="#FF6002"/>
<path fill-rule="evenodd" clip-rule="evenodd" d="M130.645 193.995C128.687 193.995 126.693 194.581 124.941 195.642V185.096C124.941 184.563 124.498 184.136 123.944 184.136H121.165C120.616 184.136 120.168 184.563 120.168 185.096V218.041C120.168 218.569 120.616 219 121.165 219H123.944C124.492 219 124.941 218.575 124.941 218.041L124.988 203.804C124.988 200.93 127.524 198.589 130.645 198.589C133.79 198.589 136.351 200.93 136.351 203.804V218.041C136.351 218.569 136.799 219 137.348 219H140.073C140.627 219 141.075 218.569 141.075 218.041V203.804C141.075 198.488 136.297 193.995 130.645 193.995Z" fill="#FF6002"/>
<path fill-rule="evenodd" clip-rule="evenodd" d="M234.759 216.856L233.898 214.414C233.809 214.17 233.627 213.966 233.378 213.858C233.137 213.744 232.853 213.733 232.6 213.824C231.515 214.216 230.594 214.409 229.793 214.409C227.674 214.409 226.771 213.494 226.771 211.36V185.094C226.771 184.564 226.323 184.133 225.774 184.133H222.996C222.446 184.133 221.998 184.564 221.998 185.094V211.36C221.998 216.12 224.732 218.894 229.505 219H229.96C231.097 218.965 232.433 218.572 233.968 218.123L234.104 218.082C234.365 218.01 234.577 217.833 234.701 217.606C234.825 217.372 234.848 217.1 234.759 216.856Z" fill="#FF6002"/>
<path fill-rule="evenodd" clip-rule="evenodd" d="M166.337 214.359C168.579 214.359 170.685 213.519 172.267 211.997L178.195 206.289L172.267 200.576C170.685 199.054 168.579 198.214 166.337 198.214C161.711 198.214 157.954 201.836 157.954 206.289C157.954 210.737 161.711 214.359 166.337 214.359ZM166.337 193.653C169.842 193.653 173.14 194.965 175.616 197.351L181.546 203.063L187.481 197.356C189.958 194.965 193.251 193.653 196.761 193.653C197.34 193.653 197.811 194.107 197.811 194.664V197.203C197.811 197.76 197.34 198.214 196.761 198.214C194.518 198.214 192.413 199.054 190.826 200.582L184.903 206.289L190.826 211.997C192.413 213.519 194.518 214.359 196.761 214.359C201.387 214.359 205.144 210.737 205.144 206.289C205.144 205.727 205.616 205.273 206.2 205.273H208.832C209.415 205.273 209.882 205.727 209.882 206.289C209.882 213.258 203.994 218.926 196.761 218.926C193.251 218.926 189.958 217.608 187.481 215.222L181.546 209.515L175.616 215.222C173.14 217.608 169.847 218.926 166.337 218.926C159.099 218.926 153.211 213.258 153.211 206.289C153.211 199.322 159.099 193.653 166.337 193.653Z" fill="#FF6002"/>
</svg>
